<svg id="Layer_1" data-name="Layer 1" xmlns="http://www.w3.org/2000/svg" viewBox="0 0 89.66 14.76"><defs><style>.cls-1{fill:#ffffff;}</style></defs><path class="cls-1" d="M9.38,4.14A4,4,0,0,1,8.2,7.23a5.16,5.16,0,0,1-3.52,1,5.1,5.1,0,0,1-3.5-1A3.92,3.92,0,0,1,0,4.14,3.91,3.91,0,0,1,1.18,1.05a5.1,5.1,0,0,1,3.5-1A5.16,5.16,0,0,1,8.2,1.05,3.94,3.94,0,0,1,9.38,4.14ZM2.52,14.58l-2,.18L.9,12.6V11L.54,8.82,1.8,9H3.31l1.26-.18v2.52H13.7l1.8-.18c-.1.35-.19.67-.26.95s-.15.57-.2.85-.1.56-.14.85-.09.61-.12.95l-1.08-.18ZM5.71,4.14c0-.72-.35-1.08-1-1.08s-1,.36-1,1.08.34,1.08,1,1.08S5.71,4.86,5.71,4.14ZM11.47,0l1.26.18h1.15L15.14,0V10.44l-1.26-.18H12.73l-1.26.18Z"/><path class="cls-1" d="M21.67,6.64a5.7,5.7,0,0,1-2,1.07,8.77,8.77,0,0,1-2.77.39l-.58-3.2A4,4,0,0,0,19,4.2a2.5,2.5,0,0,0,.82-2v-2L21.1.36h1.15L23.51.18v2A7.65,7.65,0,0,1,23.4,3.5a5.56,5.56,0,0,1-.34,1.18h2l1.8-.18c-.09.35-.18.67-.26,1s-.14.57-.2.85-.1.56-.14.85-.08.61-.12.95l-1.08-.18H21.67Zm6.54,5.42H19.06L18,12.24c0-.34-.07-.65-.12-1s-.09-.57-.14-.85-.12-.56-.2-.85-.16-.6-.26-.95l1.8.18H30.62l1.26-.18v6.12l-1.26-.18H29.47l-1.26.18ZM28.21,0l1.26.18h1.15L31.88,0V8.28L30.62,8.1H29.47l-1.26.18Z"/><path class="cls-1" d="M33.8,14.58c0-.34-.07-.65-.11-.95s-.09-.57-.15-.85-.12-.56-.2-.85-.16-.6-.26-.95l1.8.18h8l1.8-.18c-.09.35-.18.67-.26.95s-.14.57-.2.85-.1.56-.14.85-.08.61-.12.95l-1.08-.18h-8ZM43.76,5a5.44,5.44,0,0,1-1.15,3.73,4.68,4.68,0,0,1-3.73,1.31,4.67,4.67,0,0,1-3.72-1.31A5.49,5.49,0,0,1,34,5,5.54,5.54,0,0,1,35.16,1.3,4.74,4.74,0,0,1,38.88,0a4.75,4.75,0,0,1,3.73,1.3A5.49,5.49,0,0,1,43.76,5ZM40.09,5A3.55,3.55,0,0,0,40,4.16a1.48,1.48,0,0,0-.26-.55.83.83,0,0,0-.38-.29,1.51,1.51,0,0,0-.48-.08,1.1,1.1,0,0,0-.85.37A2.2,2.2,0,0,0,37.69,5,2.2,2.2,0,0,0,38,6.47a1.1,1.1,0,0,0,.85.37,1.51,1.51,0,0,0,.48-.08.77.77,0,0,0,.38-.29A1.48,1.48,0,0,0,40,5.92,3.55,3.55,0,0,0,40.09,5ZM45,0l1.26.18h1.15L48.62,0V14.76l-1.26-.18H46.21L45,14.76Z"/><path class="cls-1" d="M64.6,12.42,65,14.58l-2-.18H57.2l-2,.18.36-2.16V2.34L55.22.18l1.62.18H58L59.26.18V4.09h1.67V.18l1.26.18h1.15L65,.18,64.6,2.34Zm-3.67-1.26V7.33H59.26v3.83ZM66.15,0l1.26.18h1.15L69.82,0V5.58h.4L72,5.4c-.1.35-.19.67-.26.95s-.15.57-.2.85-.1.56-.15.85-.08.61-.11.95l-1.08-.18h-.4v5.94l-1.26-.18H67.41l-1.26.18Z"/><path class="cls-1" d="M76.9,11.16h3.9L82.6,11c-.09.35-.18.67-.26.95s-.14.57-.2.85-.1.56-.14.85-.08.61-.12.95L80.8,14.4h-6l-2,.18.36-2.16V2.34L72.86.18l2,.18h5.78l1.8-.18c-.09.35-.18.67-.26,1S82,1.7,82,2s-.1.56-.14.85-.08.61-.12.95L80.62,3.6H76.9ZM83.79,0l1.26.18H86.2L87.46,0V5.58h.4l1.8-.18c-.1.35-.19.67-.26.95s-.15.57-.2.85-.1.56-.15.85-.08.61-.11.95l-1.08-.18h-.4v5.94l-1.26-.18H85.05l-1.26.18Z"/></svg>